<?xml version="1.0" encoding="UTF-8" standalone="no"?>
<svg
   xmlns:dc="http://purl.org/dc/elements/1.1/"
   xmlns:cc="http://creativecommons.org/ns#"
   xmlns:rdf="http://www.w3.org/1999/02/22-rdf-syntax-ns#"
   xmlns:svg="http://www.w3.org/2000/svg"
   xmlns="http://www.w3.org/2000/svg"
   xmlns:sodipodi="http://sodipodi.sourceforge.net/DTD/sodipodi-0.dtd"
   xmlns:inkscape="http://www.inkscape.org/namespaces/inkscape"
   sodipodi:docname="favicon.svg"
   inkscape:version="1.0 (4035a4fb49, 2020-05-01)"
   id="svg149"
   version="1.1"
   viewBox="0 0 210 297"
   height="297mm"
   width="210mm">
  <defs
     id="defs143">
    <inkscape:path-effect
       only_selected="false"
       apply_with_weight="true"
       apply_no_weight="true"
       helper_size="0"
       steps="2"
       weight="33.333333"
       lpeversion="1"
       is_visible="true"
       id="path-effect167"
       effect="bspline" />
  </defs>
  <sodipodi:namedview
     inkscape:window-maximized="1"
     inkscape:window-y="247"
     inkscape:window-x="1920"
     inkscape:window-height="1056"
     inkscape:window-width="2558"
     showgrid="false"
     inkscape:document-rotation="0"
     inkscape:current-layer="layer1"
     inkscape:document-units="mm"
     inkscape:cy="532.25774"
     inkscape:cx="278.85828"
     inkscape:zoom="0.98994949"
     inkscape:pageshadow="2"
     inkscape:pageopacity="0.0"
     borderopacity="1.0"
     bordercolor="#666666"
     pagecolor="#ffffff"
     id="base" />
  <metadata
     id="metadata146">
    <rdf:RDF>
      <cc:Work
         rdf:about="">
        <dc:format>image/svg+xml</dc:format>
        <dc:type
           rdf:resource="http://purl.org/dc/dcmitype/StillImage" />
        <dc:title></dc:title>
      </cc:Work>
    </rdf:RDF>
  </metadata>
  <g
     id="layer1"
     inkscape:groupmode="layer"
     inkscape:label="Layer 1">
    <path
       d="m 36.173593,250.39265 c 47.092849,-0.0372 94.186947,0.0348 141.279017,-0.0706 18.91834,-0.67379 33.10885,-19.76281 31.09363,-38.02175 -0.0644,-45.9746 0.0445,-91.95278 -0.12846,-137.925147 C 206.91379,56.438124 189.24953,41.610013 171.27571,43.64294 124.63948,43.767717 77.993137,43.553138 31.36326,43.891419 13.85533,45.33084 -0.13593016,62.423109 1.743316,79.855438 1.7397748,126.43857 1.5709096,173.02439 1.6708753,219.60585 c 0.7338936,17.58271 17.4554707,30.99842 34.5027177,30.7868 z"
       style="fill:#34373c;fill-opacity:1;stroke:#34373c;stroke-width:0.264583px;stroke-linecap:butt;stroke-linejoin:miter;stroke-opacity:1"
       id="path996" />
    <path
       d="m 104.74302,50.043274 c 4.8289,-0.14275 9.89219,0.392125 14.03089,3.102199 5.6647,3.519 10.65085,9.101139 11.31889,15.988219 0.76885,6.109269 -0.80709,12.658392 -5.11203,17.197632 -4.7615,5.42515 -12.00547,8.229086 -19.15337,8.138487 -7.147836,0.248463 -14.55928,-2.235656 -19.42053,-7.634348 -3.9423,-4.085465 -5.406815,-9.927569 -5.129112,-15.480058 -0.180527,-5.25685 2.306069,-10.252856 6.008907,-13.870002 3.6528,-3.751006 8.222789,-7.211259 13.690495,-7.33744 1.25317,-0.08909 2.51011,-0.09794 3.76586,-0.104689 z"
       style="fill:#1bb76e;fill-opacity:1;stroke:#1bb76e;stroke-width:0.264583px;stroke-linecap:butt;stroke-linejoin:miter;stroke-opacity:1"
       id="path165" />
    <path
       d="M 105.0227,172.27844 C 96.703667,155.87113 90.179452,138.49319 80.600212,122.76605 70.224029,111.2306 48.139339,116.98101 44.823304,132.1895 c -3.110338,10.57999 4.636634,19.80662 8.200004,29.14318 11.045538,23.67058 21.19364,47.80553 33.073678,71.05892 7.867299,11.39031 27.555164,14.00137 35.960174,1.86799 7.40115,-10.8727 11.28113,-23.61068 17.32998,-35.2126 8.60153,-18.57697 17.55251,-36.9971 25.64792,-55.80433 4.08805,-13.73511 -9.26393,-29.75953 -23.67682,-26.53517 -10.83648,1.24222 -16.82597,11.71819 -20.56047,20.83816 -5.13942,11.62838 -10.47951,23.17322 -15.77507,34.73279 z"
       style="fill:#ffffff;fill-opacity:0.999996;stroke:#ffffff;stroke-width:0.264583px;stroke-linecap:butt;stroke-linejoin:miter;stroke-opacity:1"
       id="path992" />
  </g>
</svg>
